<?xml version="1.0" encoding="UTF-8"?><svg id="splat2" xmlns="http://www.w3.org/2000/svg" viewBox="0 0 1920 1080"><defs><style>.cls-1{fill:#603aff;}</style></defs><path class="cls-1" d="M301.3,221.76c-6.25,4.29-11.61-2.57-14.04-6.11-12.03-17.48,5.89-36.57,13.27-48.73,2.77,1.83,5.72,3.74,8.78,5.72,3.36,18.92,3.13,38.12-8,49.12Zm47.45-10.13c-9.33-.28-18.84-14.12-27.26-31.09,13.45,8.74,27.59,18.21,38.58,27.19-3.86,2.58-7.66,4.01-11.32,3.9Zm34.54,161.49c.74-6.29,2.55-11.16,5.97-13.54,10.52-7.36,21.68-3.69,31.54,1.98-14.47,5.1-29,4.6-37.51,11.56ZM636.15,0c38.01,10.49-59.74,63.01-1.3,114.57,10.14,7.29,24.65,3.66,34.21,1.24-3.61-25.87-24.92-54.88-9.95-59.89,16.95-3,9.01,33.93,16.3,58.46,1.66-.24,2.8-.18,3.26,.41,1.03,1.33,.28,3.42-1.29,6,5.04,15.77,11.38,31.13,19.3,40.04,7.6,.88,16.06,1.37,24.75,1.67,8.27-8.62,14.55-22.82,22.89-17.47,5.13,3.29,4.35,10.31,3.25,17.84,26.24,7.14,50.82-2.91,50.18,4.14-1,11.01-24.94-3-51.36,6.56-.09,4.84,.31,10.03,4.45,12.19,11.2,5.86,24.57,6.67,27.4,6.15,23.46-4.28,42.98-28.15,47.97-34.27,0,0,12.79-15.31,19-14.25,1.51,.26,2.98,1.09,4.4,2.6,0,0,.85,1.08,1.15,2.22,1.24,4.86-20.1,17.8-20.1,17.8-18.49,9.5-53.74,37.5-51.44,68.53,2.93,39.32,44.46,34.55,42.46,46.56-2.31,13.96-39.7-12.3-50.22,9.02-30.57,62.03,57.21,83.05,43.24,98.06-16.78,18.04-31.91-65.05-89.23-60.91-22.94,1.66-32.45,6.87-23.48,82.93,3.07,25.92-5.32,28.45-8.15,28.62-4.36,.26-9.48-7.72-4.81-34.63,1.33-7.63,1.87-14.86,1.87-21.6,0-33.75-13.84-55.31-13.84-55.46-11.97-9-24.94,6.01-35.91-6-4.53-4.96,2.75-12.17-7.34-23.09-.4-.43-.78-.63-1.15-.64-8.4-.07-32.5,58.25-36.39,82.77-3.37,21.23,7.13,49.05-2.99,48.04-9.98-1,.17-41.87-1-51.04-1-18.01,1.99-24.02-5.99-24.02s-20.48,.2-27.92-9c-7.98-17.02,6.72-45.02-3.25-43.01-3.39,3.42-7.93,7.64-12.07,12.17,2.95,1.19,4.61,2.36,4.62,3.56,.01,1.35-3.26,1.64-8.75,1.31-4.39,5.65-7.37,11.48-6.18,16.63,4.93,20.99,13.59,14.86,11.66,23.35-1.72,7.61-8.82-3.86-15.9,7.06-22,33.97,43.61,33.93,35.85,40.97-14.9,13.53-49.56-27.58-61.01-20.64-40.72,24.65,.65,77.13-17.78,75.69-17.43-1.36,7.63-60.61-11.53-76.21-8.42-6.86-12.41,7.15-18.4,3.15-5.98-4,3.07-12.65-2.45-18.62-1.09-1.18-2.87-1.94-5.19-2.36-.14,.65-.28,1.31-.41,1.97,1.57,1.93,2,3.64,.6,5.17-.51,.55-1.08,.91-1.73,1.08-4.12,25.46,2.2,49.79-5.03,50.33-6.73,.46-.47-25.79-1.37-51.84-2.81-1.47-6.09-3.75-9.7-6.23-6.59,3.31-25.73,.79-29.57,8.49-3,6.01-18.96,3-17.75-.33-7.52,20.76,1.31,45.23,3.78,57.37,2.22,10.89,15.58,23.82,7.98,27.03-7.33,3.09-6.98-19.02-11.97-25.02-11.98-14.43-26.84-18.59-36.71-18.42-13.94,.24-25.42,21.32-31.11,34.43-4.38,10.08-3.99,29.02-8.98,28.02-7.82-1.57,4.66-19.08,5.99-32.02,1.14-11.2,1.09-32.86-11.97-44.04-1.97-1.68-4.61-3.88-8.3-4.1-8.11-.5-12.96,9.61-19.63,.1-6.86-9.78-5.99,22.02-16.96,19.01-10.97-5-2.98-27.92-11.97-27.02-9.97,1-30.98,15.76-21.94,52.04,3.57,14.33-6.39,33.62-11.36,33.64-5.19,.02-8.51-21.27-4.6-35.64,5.99-22.02-11.97-42.03-19.95-44.03-6.49-1.63-66.82,51.04-74.8,46.03-4.93-3.09,60.84-39.03,47.87-50.04-11.86-10.06,10.97-15.01-2.99-24.01-17.17-11.08-50.87-2.01-53.86-9.01-2.49-5.84,15.99-16.01,19.67-22.75,1.33-2.43,1.44-5.86-.53-10.68,0,0-2.36-11.66-13.03-17.26C34.72,271.09,3.8,352.15,.81,302.11c2-39.03,76.8,16.02,111.71-42.03,17.96-71.05-131.66-60.05-62.65-77.46,31.78-8.02,29.74,51.44,102.55,15.41,13.54-6.7,6.88-31.01,18.14-34.42,9.98-3.03,16.97,12.01,26.74,11.4,43.89-12-.02-106.08,27.93-106.08,30.92,0-16.96,85.07,25.93,107.09,2.52,1.46,12.87,6.67,23.94,3,11.27-3.74,16.44-14.39,17.72-17.28-9.59-6.61-29.69-7.74-26.7-19.75,3-7.01,20.95,7.63,32.86,14.01h0c1.17-.46,2.23-.32,3.23,.6,.54,.5,.89,1.08,1.07,1.72,1.09,.6,2.2,1.2,3.34,1.82-5.63-22.61-31.55-45.98-12.58-51.18,10.97-3,9.96,31.73,19.95,55.19h0c19.51,10.6,43.3,23.13,61.59,28.08,8.86-11.32,17.43-25.86,24.75-38.84-6.44-11.14-13.95-20.2-8.76-22.76,4.32-2.14,8.68,4.63,14.28,12.86,7.65-13.74,13.27-23.66,15.32-22.24,1.9,1.31-3.68,13.26-10.46,29.12,7.37,9.78,21.75,26.49,30.34,15.57,53.47-67.98,.61-75.99,23.55-84,26.93-4-9.97,59.05,16.84,84.65,5.47,5.22,14.78,.13,23.89-8.04,8.14-10.56-18.12-26.99-10.81-31.57,7.98-5.01,15.82,16.15,35.53,2.92l.27-.18s.01-.02,.01-.02c6.2-4.24,10.85-9.64,11.59-16.23,7.46-66.55-38.47-63.65-30.88-92.03,4.43-16.56,12.41,8.46,48.06,67.37,.33,.56,.87,.95,1.31,1.4,8.01,8.37,15.76,13.67,22.15,12.59,43.65-22.33,24.77-94.82,44.89-102.8h8.69Z"/><path class="cls-1" d="M128.71,149.06c-.95,10.4-2.03,8-7,8s-12-2.37-12-9,8.03-15,13-15,7,5,6,16Z"/><path class="cls-1" d="M362.71,111.06c0,5.25-5.75,11-11,11s-11-1.75-11-7,7.75-12,13-12,9,2.75,9,8Z"/><path class="cls-1" d="M803.71,105.06c0,7.46-7.13,15-11,15s-8-10.54-8-18,6.13-12,10-12,9,7.54,9,15Z"/><path class="cls-1" d="M672.71,414.06c0,11.05-4.95,24-16,24s-26-1.95-26-13,7.95-27,19-27,23,4.95,23,16Z"/><path class="cls-1" d="M280.71,472.06c0,4.97-4.03,7-9,7s-9-2.03-9-7,1.03-8,6-8,12,3.03,12,8Z"/><path class="cls-1" d="M122.71,394.06c0,5.52-2.48,13-8,13s-12-2.48-12-8,7.48-12,13-12,7,1.48,7,7Z"/><path class="cls-1" d="M1494.56,779.38c-39.61,22.1-51.75,46.59-51.78,58.43-.02,7.38,4.64,15.7,10.93,20.06,11.1,7.7,56.05,2.74,25.65,14.14-20.07,7.52-27.58-28.76-38.48,.47-9.02,24.23,14.25,28.98,9.98,36.11-3.71,6.18-22.12-12.79-28.03,2.38-15.2,38.95,75.32,103.27,54.63,117.81-17.58,12.35-10.68-78.99-93.11-88.36-20.9-2.38-23.1,30.03-36.57,27.07-12.7-2.78-10.26-30.28-31.35-25.18-1.95,.47-3.86,.98-5.71,1.54-.21,15.15-8.86,28.15-21.21,34.04,4,3.32,6.49,7.97,6.49,13.11,0,10.1-9.57,18.29-21.38,18.29-4.99,0-9.59-1.47-13.22-3.93-5.98,7.56-14.72,12.85-24.68,14.4-3.63,6.58-6.85,9.69-11.5,6.63-2.4-1.57-2.68-3.86-1.45-6.78-18.35-3.27-32.28-19.3-32.28-38.59,0-21.64,17.55-39.19,39.19-39.19,2.69,0,5.31,.27,7.85,.79,.29-18.82,13.59-34.31,30.84-36.96-.3-.45-.61-.9-.93-1.36-42.28-60.33-165.9,21.77-171.49-1.42-4.88-20.21,32.67-4.38,88.66-21.51,27.96-8.55,67.37-20.21,67.16-35.02-.34-24.35-22.33-65.08-71.26-69.83-24.35-2.37-59.53-.78-55.1-14.73,6.17-19.48,33.47-1.98,57.95,5.7,56.05,17.58,84.67,29.56,95.96,17.58,7.6-8.08-1.9-14.73,5.7-22.8,4.77-5.07,10.45,8.55,17.58,6.17,5.82-1.94,10.05-36.54-5.7-74.58-5.7-13.78-27.07-26.13-12.82-34.68,13.86-8.32,13.58,18.95,19.95,31.35,19.84,38.64,34.73,64.24,42.75,66.98,24.76,8.46,31.94-10.45,38.95-7.6,20.18,8.22-5.37,13.51,21.85,29.46,12.51,7.33,44.77,2.78,80.28-5.7,33.69-8.05,61.28-33.73,66.51-21.38,5.23,12.38-40.38,15.68-60.8,27.08Z"/><path class="cls-1" d="M1270.03,744.58c0,7.25-.77,8.75-8.02,8.75s-18.95-6.6-18.95-13.85,6.6-12.39,13.85-12.39,13.12,10.25,13.12,17.5Z"/><path class="cls-1" d="M1556.52,932.66c0,11.88-13.64,18.22-25.51,18.22s-18.22-12.18-18.22-24.06,8.53-17.5,20.41-17.5,23.33,11.45,23.33,23.33Z"/><path class="cls-1" d="M1920,306.8c-33.25,7.09-76.84,28.35-78.01,44.59-1.64,22.9,39.16,53.52,71.95,52.94,1.66-.03,3.71-.15,6.06-.19v19.07c-3.29-2.47-6.15-5.05-8.98-7.21-28.5-21.78-76.7-18.97-84.03-4.61-5.34,10.47,12.08,25.33,6,33-6.42,8.1-26.1-5.62-38,1-17.84,9.92-33,71.62-15,124,35.52,103.39,111.38,106.59,108,163-3.01,50.28-47.63,44.7-64,109-19.75,77.58,31.1,141.11-3,183-3,3.69-13.35,16.4-25,15-14.95-1.79-23.17-25.75-26-34-17.09-49.83,7.44-104.11,18-150,5.19-22.58,22.82-114.6-38-271-14-36-23.44-57.23-40-59-13.21-1.41-33.39,50.35-31.5,67.5,1.17,10.68,12.74,40.21,10,50-1.66,5.95-8.38,28.74-15,29-7.88,.32-15.31-28.31-17-35-2.13-8.46,.53-34.59,5-44,10.28-21.64,14.49-143.14,3.5-150.5-10.88-7.28-26.53,5.27-33.5-1.5-7.19-6.98,8.47-21.75,1.5-36.5-9.24-19.56-58.25-27.03-66.5-26.5-33.06,2.15-27.32,20.96-58,15-7.35-1.42-23.21-2.26-25-10-2.31-9.97,19.9-22.73,22-24,24.77-14.87,24.71,7.46,59.5,2.5,26.89-3.82,59.42-21.08,64.5-44.5,4.75-21.89-16.78-38.62-9-49,7.19-9.6,26.18,3.97,49-3,36.03-11,61.33-67.03,47-94-5.97-11.23-16.36-12.82-18-25-1.76-13.12,7.63-31.18,21-32,11.28-.68,21.45,11.14,24,22,2.97,12.63-5.12,20.7-9.5,33.5-9.94,29.1,3.43,70.66,23,79,9.12,3.89,76.26-27.17,95-48,9-10-.81-9.13,11-26,7-10,23.31-13.21,27-11,5,3,8.66,10.37-5,32-7.87,12.46-22.03,1.17-29,10-4.27,5.42-42.64,68.64-31,91,9.55,18.35,55.65,19.85,95.01,8.6v1.81Z"/><path class="cls-1" d="M1576.99,267.39c0,22.37-30.22,13-49,13s-27-32.63-27-55,22.22-27,41-27,35,46.63,35,69Z"/><path class="cls-1" d="M1895.99,484.95c0,11.05-4.11,23.64-15.15,23.64s-24.85-8.95-24.85-20,5.32-19.39,16.36-19.39,23.64,4.71,23.64,15.76Z"/></svg>