<?xml version="1.0" encoding="UTF-8"?><svg id="splat2" xmlns="http://www.w3.org/2000/svg" viewBox="0 0 533.02 925.64"><defs><style>.cls-1{fill:#603aff;}</style></defs><path class="cls-1" d="M250.67,55.53c-9.94,29.1,3.43,70.66,23,79,9.11,3.89,76.26-27.17,95-48,9-10-.81-9.13,11-26,7-10,23.31-13.21,27-11,5,3,8.66,10.37-5,32-7.87,12.46-22.03,1.17-29,10-4.27,5.42-42.64,68.64-31,91,12.52,24.06,87.91,19.15,128.5-5.5,28-17,46.02-30.21,54-33,11.48-4.01,16-5-13,36-3.95,5.59-3.96,14.65-16,16-8.9,1-21.88-1.8-28-4-24.58-8.84-106.89,23.1-108.5,45.5-1.64,22.9,39.16,53.52,71.95,52.93,6.32-.11,18.18-1.49,31.55,4.57,9.67,4.37,21.12,13.08,19.5,18.5-1.59,5.32-15.54,6.75-26.5,4.5-13.35-2.74-20.51-10.57-27.47-15.89-28.5-21.78-76.7-18.97-84.03-4.61-5.34,10.46,12.08,25.32,6,33-6.42,8.1-26.1-5.62-38,1-17.84,9.92-33,71.61-15,124,35.52,103.39,111.38,106.59,108,163-3.01,50.28-47.63,44.7-64,109-19.75,77.58,31.1,141.1-3,183-3,3.69-13.35,16.4-25,15-14.95-1.8-23.17-25.76-26-34-17.09-49.83,7.44-104.11,18-150,5.19-22.58,22.82-114.6-38-271-14-36-23.44-57.23-40-59-13.21-1.41-33.39,50.35-31.5,67.5,1.17,10.68,12.74,40.21,10,50-1.66,5.95-8.38,28.73-15,29-7.89,.32-15.31-28.31-17-35-2.13-8.46,.53-34.6,5-44,10.28-21.64,14.49-143.14,3.5-150.5-10.88-7.28-26.53,5.27-33.5-1.5-7.19-6.98,8.47-21.75,1.5-36.5-9.24-19.56-58.26-27.04-66.5-26.5-33.06,2.15-27.32,20.96-58,15-7.35-1.43-23.21-2.27-25-10-2.31-9.97,19.9-22.74,22-24,24.77-14.87,24.71,7.45,59.5,2.5,26.89-3.83,59.42-21.09,64.5-44.5,4.75-21.89-16.78-38.62-9-49,7.19-9.6,26.18,3.97,49-3,36.03-11.01,61.33-67.03,47-94-5.97-11.23-16.36-12.82-18-25C213.4,18.91,222.8,.84,236.17,.03c11.28-.69,21.45,11.14,24,22,2.97,12.63-5.12,20.69-9.5,33.5Z"/><path class="cls-1" d="M93.67,153.53c0,22.37-30.22,13-49,13s-27-32.63-27-55,22.22-27,41-27,35,46.63,35,69Z"/><path class="cls-1" d="M412.67,371.09c0,11.05-4.11,23.64-15.15,23.64s-24.85-8.95-24.85-20,5.32-19.39,16.36-19.39,23.64,4.71,23.64,15.76Z"/></svg>