<?xml version="1.0" encoding="UTF-8"?><svg id="splat2" xmlns="http://www.w3.org/2000/svg" viewBox="0 0 460 372.29"><defs><style>.cls-1{fill:#603aff;}</style></defs><path class="cls-1" d="M398.04,121.74c-39.61,22.1-51.75,46.59-51.78,58.43-.02,7.38,4.64,15.7,10.93,20.06,11.1,7.7,56.05,2.74,25.65,14.14-20.07,7.52-27.58-28.76-38.48,.47-9.02,24.23,14.25,28.98,9.98,36.11-3.71,6.18-22.12-12.79-28.03,2.38-15.2,38.95,75.32,103.27,54.63,117.81-17.58,12.35-10.68-78.99-93.11-88.36-20.9-2.38-23.1,30.03-36.57,27.07-12.7-2.78-10.26-30.28-31.35-25.18-1.95,.47-3.86,.98-5.71,1.54-.21,15.15-8.86,28.15-21.21,34.04,4,3.32,6.49,7.97,6.49,13.11,0,10.1-9.57,18.29-21.38,18.29-4.99,0-9.59-1.47-13.22-3.93-5.98,7.56-14.72,12.85-24.68,14.4-3.63,6.58-6.85,9.69-11.5,6.63-2.4-1.57-2.68-3.86-1.45-6.78-18.35-3.27-32.28-19.3-32.28-38.59,0-21.64,17.55-39.19,39.19-39.19,2.69,0,5.31,.27,7.85,.79,.29-18.82,13.59-34.31,30.84-36.96-.3-.45-.61-.9-.93-1.36-42.28-60.33-165.9,21.77-171.49-1.42-4.88-20.21,32.67-4.38,88.66-21.51,27.96-8.55,67.37-20.21,67.16-35.02-.34-24.35-22.33-65.08-71.26-69.83-24.35-2.37-59.53-.78-55.1-14.73,6.17-19.48,33.47-1.98,57.95,5.7,56.05,17.58,84.67,29.56,95.96,17.58,7.6-8.08-1.9-14.73,5.7-22.8,4.77-5.07,10.45,8.55,17.58,6.17,5.82-1.94,10.05-36.54-5.7-74.58-5.7-13.78-27.07-26.13-12.82-34.68,13.86-8.32,13.58,18.95,19.95,31.35,19.84,38.64,34.73,64.24,42.75,66.98,24.76,8.46,31.94-10.45,38.95-7.6,20.18,8.22-5.37,13.51,21.85,29.46,12.51,7.33,44.77,2.78,80.28-5.7,33.69-8.05,61.28-33.73,66.51-21.38,5.23,12.38-40.38,15.68-60.8,27.08Z"/><path class="cls-1" d="M173.51,86.94c0,7.25-.77,8.75-8.02,8.75s-18.95-6.6-18.95-13.85,6.6-12.39,13.85-12.39,13.12,10.25,13.12,17.5Z"/><path class="cls-1" d="M460,275.02c0,11.88-13.64,18.22-25.51,18.22s-18.22-12.18-18.22-24.06,8.53-17.5,20.41-17.5,23.33,11.45,23.33,23.33Z"/></svg>