<?xml version="1.0" encoding="UTF-8"?><svg id="grafity" xmlns="http://www.w3.org/2000/svg" viewBox="0 0 1920 1080"><defs><style>.cls-1,.cls-2,.cls-3,.cls-4{fill:#fff;}.cls-5{fill:#292e35;}.cls-2{stroke:#292e35;stroke-width:10px;}.cls-2,.cls-3,.cls-4{stroke-miterlimit:10;}.cls-6{fill:#2227cc;}.cls-7{fill:orange;}.cls-8{fill:#87cefa;}.cls-9{fill:none;}.cls-3{stroke-width:16px;}.cls-3,.cls-4{stroke:#000;}.cls-4{stroke-width:14px;}</style></defs><path class="cls-2" d="M818.56,1026.55l-55.91-69.68,13.88-36.16c4.36-11.36-1.31-24.09-12.67-28.45l-54.83-21.05c-11.36-4.36-24.09,1.31-28.45,12.67l-11.02,28.7c-1.32-7.55-3.53-15.29-6.63-23.03-10.85-27.07-29.8-47.47-51.98-55.99l-68.45-26.28c-11.36-4.36-24.09,1.31-28.45,12.67l-16.24,42.3c-6.08-22.21-22.28-41.36-45.38-50.22l-60.31-23.15c-2.41-.92-4.87-1.4-7.31-1.45,1.85-4.81,3.76-9.76,5.72-14.88,4.36-11.36-1.31-24.09-12.67-28.45l-58.25-22.36c-2.41-.92-4.87-1.4-7.3-1.46-1.85-1.58-4-2.88-6.4-3.8l-65.11-24.99c-11.36-4.36-24.1,1.33-28.46,12.68-12.59,32.79-22.7,59.14-30.48,80.79-.12-.06-.24-.12-.36-.18-.51-.24-1.03-.46-1.54-.66-8.33-3.2-17.85-1.05-24,5.55-9.79,10.51-16.69,12.6-18.97,12.56l-.07-.03c-.35-.13-.7-.26-1.05-.37-.14-1.03-.2-3.77,1.54-8.95l39.3-102.39c4.36-11.36-1.32-24.1-12.67-28.45l-34.2-13.13c-2.4-.92-4.86-1.39-7.29-1.46-1.85-1.57-3.99-2.87-6.39-3.79l-34.2-13.13c-11.36-4.36-24.09,1.31-28.45,12.67L-12.26,814.5c-4.36,11.36,1.31,24.09,12.67,28.45l34.2,13.13c8.95,3.44,18.76,.64,24.65-6.26,6.37,12.71,16.63,22.11,30.08,27.27,20.84,8,41.37,6.59,59.36-4.08,4.61-2.73,9-6.03,13.15-9.88-.01,.73-.02,1.44,0,2.15,.18,18.77,7.27,33.14,21.7,43.95,11,8.25,25.31,13.74,43.42,20.69l1.63,.63c18.11,6.95,32.41,12.44,46.11,13.67,14.81,1.33,27.54-2.47,38.66-11.62l-2.31,6.01c-4.36,11.36,1.31,24.09,12.67,28.45l109.65,42.09c11.36,4.36,24.09-1.31,28.45-12.67l2.79-7.27c4.59,9.46,12.3,19.13,23.1,28.94,13.09,11.9,30.61,23.61,41.68,27.85l68.46,26.28c5.83,2.24,12.01,1.83,17.24-.63,2.23,5.33,6.56,9.77,12.38,12l54.83,21.05c11.36,4.36,24.09-1.31,28.45-12.67l10.52-27.41,61.68,23.68c11.36,4.36,24.09-1.31,28.45-12.67l10.52-27.41c2.81-7.31,1.52-15.57-3.38-21.67Zm-339.42-92.29l14.63-21.35c1.95,1.72,4.2,3.08,6.64,4.02,1.08,.42,2.2,.75,3.36,.99,3.49,.73,6.82,1.46,10.02,2.18-12.61,3.3-24.94,7.61-34.65,14.16Zm155.91,68.23c-2.28-2.46-5.1-4.38-8.26-5.59-1.04-.4-2.13-.72-3.23-.97-1.97-.43-3.9-.85-5.78-1.27,8.58-2.76,17.03-6.34,24.58-11.24l-7.32,19.06Z"/><path class="cls-5" d="M74.07,651.06L8.3,822.39l34.21,13.13,26.31-68.53,13.68,5.25c-14.71,40.35-11.26,74.31,14.74,84.29,52.68,20.22,74.61-50.09,74.85-51.86-25.36,27.22-43.04,18.07-43.04,18.07,0,0-23.24-5.58-12.34-37.37l39.46-102.8-34.21-13.13-26.31,68.53-13.68-5.25,26.31-68.53-34.21-13.13Z"/><path class="cls-5" d="M369.97,764.64q-65.9,171.67-134.3,145.02-68.53-26.31-2.77-197.64l65.11,24.99c-16.05,41.8-16.16,72.82,.97,79.4,15.76,6.05,35.96-11.75,40.7-24.09l-13.71-5.26c-5.68,12.76-17.81,17.16-21.6,15.3-5.94-2.91-7.92-20.34,7.34-60.09l58.25,22.36Z"/><path class="cls-5" d="M390.21,924.96l16.45,6.31c27.25,10.46,57.82-3.15,68.28-30.4,10.46-27.25-3.15-57.82-30.4-68.28l-60.31-23.15-52.61,137.07,109.65,42.09,10.52-27.41-65.79-25.25,4.21-10.97Zm26.31-68.53l19.19,7.37c10.6,4.07,14.95,18.41,9.72,32.04-5.23,13.62-18.06,21.37-28.66,17.31l-19.19-7.37,18.94-49.34Z"/><line class="cls-9" x1="657.78" y1="903.28" x2="657.48" y2="903.13"/><path class="cls-5" d="M618.9,1017.46l-13.15,34.27c-17.11-6.57-40.39-15.5-68.45-26.28-13.79-5.29-60.46-37.44-55.3-60.54,6.56-29.37,94.16-26.95,94.76-42.26,.25-6.35-14.53-14.93-68.45-26.28l26.31-68.53s38.33,14.71,68.45,26.28c34.06,13.07,55.16,66.87,41.91,94.91-17.24,36.47-93.82,28.34-94.52,42.15-.29,5.76,12.69,14.21,68.45,26.28Z"/><polygon class="cls-5" points="801.38 1040.33 790.85 1067.74 708.62 1036.17 690.2 1084.14 635.37 1063.1 701.14 891.77 755.97 912.81 737.55 960.78 801.38 1040.33"/><path class="cls-1" d="M1572.29,209.94c-19.12-3.37-35.03-13.94-45.61-29.46-15.95,10.66-34.7,15.21-52.83,12.01-20.41-3.6-37.5-15.39-48.12-33.19-10.17-17.06-13.6-38.78-9.66-61.16,3.87-21.96,15.11-43.06,30.82-57.89,17.56-16.56,39.3-24.01,59.65-20.42,18.38,3.24,34.26,14.17,45.16,30.07,13.97-10.42,30.14-15.46,46.21-13.77,1.5,.16,3.01,.37,4.49,.63,39.28,6.93,66.25,48.55,61.39,94.76-2.38,22.61-12.55,43.33-28.64,58.35-16.43,15.34-37.51,22.91-57.81,20.78-1.69-.18-3.4-.42-5.06-.71Z"/><path class="cls-4" d="M1579.51,190.06c-23.66-2.49-41.16-20.31-45.33-46.16-13.36,20.31-35.7,31.91-56.74,28.2-29.4-5.18-47.44-33.78-40.98-70.37,6.45-36.59,37.08-66.7,66.48-61.51,21.62,3.81,37.8,23.21,42.28,47.77,11.81-19.98,30.9-33.34,50.53-31.28,29.69,3.12,51.34,35.69,47.46,72.64-3.88,36.95-34.01,63.82-63.7,60.7Z"/><ellipse cx="1598.12" cy="148.41" rx="17.18" ry="18.9"/><ellipse cx="1482.82" cy="83.93" rx="18.9" ry="17.18" transform="translate(944.78 1468.24) rotate(-72)"/><path class="cls-1" d="M1435.2,361.39c-19.31,2.03-37.51-3.75-51.96-15.74-12.39,14.65-29.16,24.18-47.48,26.11-20.62,2.17-40.29-4.45-55.41-18.64-14.48-13.59-23.76-33.53-26.14-56.13-2.33-22.18,2.65-45.56,13.67-64.14,12.31-20.76,31.16-33.91,51.71-36.07,18.56-1.95,36.84,4.17,51.7,16.45,10.56-13.87,24.71-23.17,40.63-25.98,1.49-.26,3-.47,4.49-.63,39.67-4.17,77.07,28.41,85.14,74.17,3.95,22.39-.12,45.11-11.44,63.98-11.57,19.27-29.74,32.36-49.85,35.91-1.68,.3-3.38,.54-5.06,.71Z"/><path class="cls-3" d="M1436.66,340.29c-23.43,4.13-45.17-8.18-56.29-31.87-7.24,23.21-25.52,40.52-46.77,42.75-29.69,3.12-54.91-19.39-58.79-56.35-3.88-36.95,17.26-74.33,46.95-77.45,21.84-2.3,42.74,11.9,53.81,34.27,5.84-22.46,20.51-40.57,39.95-44,29.4-5.18,59.19,20.15,65.64,56.74,6.45,36.59-15.1,70.72-44.5,75.91Z"/><ellipse cx="1322.77" cy="284.74" rx="17.18" ry="18.9" transform="translate(-22.52 139.83) rotate(-6)"/><path d="M1383.7,284.41c24.46-37.96,46.24-48.58,83.05-48.28,0,0-34.9,11.3-55.67,31.53,36.49-9.39,56.24,26.7,56.24,26.7-30.38-18.32-52.92-21.5-83.62-9.95Z"/><circle class="cls-1" cx="1601" cy="888.33" r="135"/><polygon class="cls-7" points="1576.71 853.34 1583.79 865.59 1573.43 904.25 1612.09 914.61 1619.16 926.87 1561.17 911.33 1576.71 853.34"/><polygon class="cls-8" points="1628.83 929.46 1621.75 917.2 1679.74 932.74 1667.49 939.82 1628.83 929.46"/><polygon class="cls-8" points="1698.13 922.13 1685.87 929.2 1701.41 871.21 1708.49 883.47 1698.13 922.13"/><polygon class="cls-8" points="1579.3 843.67 1572.22 831.42 1578.7 807.25 1590.95 800.18 1579.3 843.67"/><polygon class="cls-8" points="1603.41 792.98 1615.67 785.91 1658.96 797.68 1666.03 809.94 1603.41 792.98"/><polygon class="cls-7" points="1640.83 865.34 1582.84 849.8 1589.91 862.05 1628.57 872.41 1640.83 865.34"/><polygon class="cls-8" points="1690.8 852.83 1623.14 834.7 1616.06 822.45 1683.72 840.57 1690.8 852.83"/><polygon class="cls-7" points="1620.5 883.2 1586.8 902.66 1579.55 900.72 1581.5 893.47 1615.2 874.01 1622.45 875.95 1620.5 883.2"/><polygon class="cls-6" points="1516.6 855.36 1520.49 840.86 1536.41 868.44 1548.06 824.94 1560.32 817.87 1539.6 895.19 1516.6 855.36"/><polygon class="cls-6" points="1587.36 977.91 1601.85 981.8 1585.94 954.22 1629.43 965.88 1641.68 958.8 1564.36 938.08 1587.36 977.91"/><polygon class="cls-6" points="1497.4 878.7 1557.54 982.87 1543.04 978.99 1493.51 893.2 1497.4 878.7"/><path class="cls-6" d="M1709.25,825.83c21.33,36.94,21.66,80.23,4.7,116.07-1.46,3.09-3.05,6.12-4.76,9.08-10.6,18.35-26.02,34.24-45.68,45.6-19.67,11.36-41.14,16.76-62.33,16.77-3.43,0-6.85-.14-10.25-.42-39.52-3.23-76.85-25.17-98.17-62.1-11.36-19.67-16.76-41.14-16.77-62.33l14.22,3.81c.61,17.54,5.41,35.19,14.8,51.45,19.38,33.56,53.65,53.16,89.65,55.25,3.43,.2,6.88,.24,10.33,.12,17.54-.61,35.19-5.41,51.45-14.8,16.26-9.39,29.24-22.27,38.54-37.15,1.83-2.93,3.52-5.93,5.06-9,16.18-32.22,16.35-71.71-3.03-105.27-9.39-16.26-22.27-29.24-37.15-38.54l3.81-14.22c18.35,10.6,34.24,26.02,45.6,45.69Z"/><path class="cls-8" d="M1654.57,775.38l-3.73,13.92c-30.25-15.19-66.89-16.27-99.03-.32l11.09,19.21-12.26,7.08-11.09-19.21c-29.88,19.86-47.27,52.13-49.24,85.92l-13.92-3.73c3.23-39.52,25.17-76.85,62.1-98.17,36.94-21.33,80.23-21.66,116.07-4.7Z"/><polygon class="cls-8" points="1635.74 874.33 1648 867.26 1664.91 871.79 1671.99 884.05 1635.74 874.33"/></svg>