<?xml version="1.0" encoding="UTF-8"?><svg id="grafity" xmlns="http://www.w3.org/2000/svg" viewBox="0 0 362.25 254.73"><defs><style>.cls-1,.cls-2{fill:#fff;}.cls-2{stroke:#1a1a1a;stroke-miterlimit:10;stroke-width:20px;}.cls-3{fill:#1a1a1a;}</style></defs><path class="cls-1" d="M251.06,254.73c-28.14,0-53.49-11.08-72.5-30.56-20.08,19.23-45.68,30.44-72.37,30.44-30.04,0-57.39-12.52-77.02-35.25C10.36,197.57,0,167.44,0,134.51S10.72,69.25,29.41,44.15C50.3,16.09,79.45,0,109.39,0c27.04,0,52.46,11.6,72.01,31.54C198.72,13.15,220.52,1.89,243.89,.26c2.18-.15,4.39-.23,6.57-.23,57.8,0,106.76,52.61,111.45,119.78,2.3,32.86-7,64.99-26.18,90.47-19.59,26.02-47.76,42.13-77.27,44.2-2.46,.17-4.95,.26-7.4,.26Z"/><path class="cls-2" d="M256.36,224.55c-34.39,2.4-63.85-18.63-76.3-54.46-13.95,32.35-42.91,54.52-73.88,54.52-43.26,0-76.19-36.26-76.19-90.1,0-53.84,36.14-104.51,79.39-104.51,31.82,0,59.79,23.62,72.35,57.53,11.82-31.48,35.71-55.35,64.24-57.35,43.15-3.02,82.25,38.01,86,91.71,3.76,53.71-32.47,99.63-75.62,102.65Z"/><ellipse class="cls-3" cx="100.64" cy="127.24" rx="24.9" ry="27.39"/><path class="cls-3" d="M188.49,136c41-51,74-63,127-57,0,0-52,11-85,37,54-8,77,47,77,47-41-31-73-39-119-27Z"/></svg>