<?xml version="1.0" encoding="UTF-8"?><svg id="grafity" xmlns="http://www.w3.org/2000/svg" viewBox="0 0 270 270"><defs><style>.cls-1{fill:#fff;}.cls-2{fill:#2227cc;}.cls-3{fill:orange;}.cls-4{fill:#87cefa;}</style></defs><circle class="cls-1" cx="135" cy="135" r="135"/><polygon class="cls-3" points="131.46 92.55 131.46 106.7 103.16 135 131.46 163.3 131.46 177.45 89.01 135 131.46 92.55"/><polygon class="cls-4" points="138.54 184.53 138.54 170.38 180.99 212.83 166.84 212.83 138.54 184.53"/><polygon class="cls-4" points="202.22 212.83 188.07 212.83 230.52 170.38 230.52 184.53 202.22 212.83"/><polygon class="cls-4" points="138.54 85.47 138.54 71.32 156.23 53.63 170.38 53.63 138.54 85.47"/><polygon class="cls-4" points="184.76 53.63 198.92 53.63 230.52 85.47 230.52 99.62 184.76 53.63"/><polygon class="cls-3" points="180.99 135 138.54 92.55 138.54 106.7 166.84 135 180.99 135"/><polygon class="cls-4" points="230.52 149.15 180.99 99.62 180.99 85.47 230.52 135 230.52 149.15"/><polygon class="cls-3" points="154.46 140.31 115.54 140.31 110.24 135 115.54 129.69 154.46 129.69 159.76 135 154.46 140.31"/><polygon class="cls-2" points="78.4 64.25 89.01 53.63 89.01 85.47 120.85 53.63 135 53.63 78.4 110.24 78.4 64.25"/><polygon class="cls-2" points="78.4 205.75 89.01 216.37 89.01 184.53 120.85 216.37 135 216.37 78.4 159.76 78.4 205.75"/><polygon class="cls-2" points="50.09 74.86 50.09 195.14 39.48 184.53 39.48 85.47 50.09 74.86"/><path class="cls-2" d="M260,135c0,42.65-21.36,80.31-53.97,102.87-2.81,1.94-5.7,3.77-8.67,5.48-18.35,10.59-39.65,16.65-62.36,16.65s-44.01-6.06-62.36-16.65c-2.97-1.71-5.86-3.54-8.67-5.48-32.61-22.56-53.97-60.22-53.97-102.87,0-22.71,6.06-44.01,16.65-62.36l10.41,10.41c-8.24,15.5-12.91,33.18-12.91,51.95,0,38.75,19.89,72.86,50.01,92.68,2.87,1.89,5.83,3.65,8.88,5.27,15.5,8.24,33.18,12.91,51.95,12.91s36.46-4.67,51.95-12.91c3.05-1.62,6.01-3.38,8.88-5.27,30.12-19.82,50.01-53.92,50.01-92.68,0-18.77-4.67-36.46-12.91-51.95l10.41-10.41c10.59,18.35,16.65,39.65,16.65,62.36Z"/><path class="cls-4" d="M237.87,63.97l-10.19,10.19c-18.6-28.28-49.79-47.53-85.6-49.79v22.18h-14.15V24.37c-35.81,2.25-67,21.51-85.6,49.79l-10.19-10.19C54.69,31.36,92.35,10,135,10s80.31,21.36,102.87,53.97Z"/><polygon class="cls-4" points="172.09 140.25 186.24 140.25 198.62 152.63 198.62 166.78 172.09 140.25"/></svg>