<?xml version="1.0" encoding="UTF-8"?><svg id="grafity" xmlns="http://www.w3.org/2000/svg" viewBox="0 0 1185 320"><defs><style>.cls-1{fill:#fff;stroke:#1a1a1a;stroke-miterlimit:10;stroke-width:10px;}.cls-2{fill:#1a1a1a;}</style></defs><path class="cls-1" d="M1165.12,149.09l-105.12-61.32V35c0-16.57-13.43-30-30-30h-80c-16.57,0-30,13.43-30,30v41.88c-5.36-8.96-11.95-17.72-19.68-26.05-27.02-29.13-61.07-45.83-93.44-45.83h-99.88c-16.57,0-30,13.43-30,30v61.72c-18.58-25.28-48.52-41.72-82.23-41.72h-88c-3.51,0-6.88,.6-10.01,1.72,.01-7.02,.01-14.25,.01-21.72,0-16.57-13.43-30-30-30h-85c-3.51,0-6.87,.6-10,1.71-3.13-1.11-6.49-1.71-10-1.71h-95c-16.57,0-30,13.45-30,30.02,0,47.84,0,86.29,.68,117.62-.18-.02-.36-.04-.54-.05-.77-.06-1.53-.09-2.28-.09-12.15,0-23.21,7.37-27.81,18.77-7.32,18.14-15.08,24.17-18,25.23h-.1c-.51,0-1.02,.01-1.52,.04-.68-1.24-2.09-4.7-2.41-12.13V35c0-16.57-13.44-30-30-30h-49.91c-3.5,0-6.86,.6-9.99,1.7-3.12-1.1-6.48-1.7-9.98-1.7H35c-16.57,0-30,13.43-30,30v250c0,16.57,13.43,30,30,30h49.91c13.06,0,24.17-8.35,28.29-20,14.3,13.05,31.95,20,51.57,20,30.41,0,55.83-11.81,73.5-34.17,4.53-5.72,8.5-12.06,11.9-18.99,.34,.93,.68,1.84,1.04,2.74,9.39,23.78,25.43,38.6,49.05,45.3,18.02,5.12,38.9,5.12,65.32,5.12h2.38c26.42,0,47.29,0,65.31-5.12,19.49-5.54,33.82-16.59,43.5-33.65v8.77c0,16.57,13.43,30,30,30h160c16.57,0,30-13.43,30-30v-10.61c10.46,9.79,24.98,18.32,43.51,25.53,22.45,8.74,50.46,15.08,66.6,15.08h99.89c8.5,0,16.17-3.53,21.62-9.22,5.44,5.69,13.11,9.22,21.61,9.22h80c16.57,0,30-13.43,30-30v-40h90c16.57,0,30-13.43,30-30v-40c0-10.67-5.67-20.54-14.88-25.91Zm-476.71,48.33l8.18-34.29c3.32,1.23,6.84,1.87,10.41,1.87,1.58,0,3.17-.12,4.75-.38,4.79-.77,9.39-1.47,13.81-2.12-14.43,10.35-28,21.85-37.15,34.92Zm231.59,10.66c-4.1-2.02-8.63-3.08-13.23-3.08-1.52,0-3.06,.12-4.58,.35-2.72,.42-5.38,.82-7.97,1.21,9.56-7.69,18.56-16.38,25.78-26.29v27.81Z"/><path class="cls-2" d="M35,35v250h49.91v-100h19.96c1,58.5,21.96,100,59.89,100,76.86,0,70.44-100.12,69.87-102.5-18.97,47-45.92,44-45.92,44,0,0-32.28,4.25-33.94-41.5V35h-49.91v100h-19.96V35H35Z"/><path class="cls-2" d="M466.77,35c0,250.5,0,250-100,250s-100,.5-100-250h95c0,61,15,100.5,40,100.5,23,0,40-32.5,40-50.5h-20c-1,19-14.27,30.51-20,30-8.98-.8-20-22-20-80h85Z"/><path class="cls-2" d="M570.77,229h24c39.77,0,72-32.23,72-72s-32.23-72-72-72h-88v200h160v-40h-96v-16Zm0-100h28c15.46,0,28,16.12,28,36s-12.54,36-28,36h-28v-72Z"/><path class="cls-2" d="M906.77,235v50h-99.88c-20.13,0-95.17-18.1-99.88-50-6-40.55,106.59-80.24,99.88-100-2.78-8.2-25.76-11.89-99.88,0V35h99.88c49.7,0,102.8,58.12,99.63,100.25-4.12,54.8-105.49,81.84-99.63,99.75,2.44,7.47,23.07,11.88,99.88,0Z"/><polygon class="cls-2" points="1150 175 1150 215 1030 215 1030 285 950 285 950 35 1030 35 1030 105 1150 175"/></svg>