<?xml version="1.0" encoding="UTF-8"?><svg id="splat2" xmlns="http://www.w3.org/2000/svg" viewBox="0 0 850.5 480.5"><defs><style>.cls-1{fill:#603aff;}</style></defs><path class="cls-1" d="M849.95,149.43c-.3-1.14-1.15-2.22-1.15-2.22-1.43-1.51-2.89-2.34-4.4-2.6-6.21-1.06-19,14.25-19,14.25-5,6.11-24.52,29.99-47.98,34.27-2.82,.52-16.2-.29-27.4-6.14-4.14-2.16-4.54-7.36-4.45-12.19,26.42-9.57,50.36,4.44,51.36-6.57,.64-7.05-23.94,3-50.18-4.14,1.11-7.53,1.89-14.54-3.25-17.83-8.34-5.35-14.61,8.85-22.88,17.46-8.7-.29-17.16-.78-24.76-1.66-7.92-8.92-14.26-24.27-19.3-40.04,1.58-2.58,2.32-4.67,1.29-6-.46-.59-1.6-.65-3.25-.41-7.29-24.53,.65-61.46-16.31-58.46-14.96,5,6.34,34.02,9.95,59.89-9.56,2.42-24.07,6.05-34.21-1.24-58.53-51.64,39.62-104.25,1.12-114.62-33.71-9.08-4.79,77.99-53.39,102.85-6.39,1.08-14.14-4.22-22.15-12.59-.44-.45-.98-.84-1.32-1.4-35.65-58.91-43.63-83.93-48.06-67.37-7.59,28.38,38.34,25.48,30.88,92.03-.74,6.6-5.39,11.99-11.59,16.23,0,0,0,.01,0,.02-.09,.06-.18,.12-.27,.18-19.71,13.23-27.55-7.93-35.53-2.92-7.31,4.58,18.95,21.02,10.81,31.57-9.12,8.17-18.42,13.26-23.9,8.04-26.81-25.6,10.09-88.65-16.84-84.65-22.94,8.01,29.92,16.01-23.55,84-8.59,10.92-22.97-5.78-30.34-15.57,6.78-15.85,12.36-27.8,10.46-29.11-2.05-1.42-7.67,8.5-15.32,22.24-5.61-8.23-9.96-15-14.28-12.86-5.19,2.56,2.32,11.62,8.76,22.76-7.32,12.98-15.89,27.52-24.75,38.84-18.29-4.94-42.08-17.47-61.59-28.07h0c-9.99-23.47-8.98-58.2-19.95-55.19-18.97,5.19,6.95,28.56,12.58,51.18-1.14-.62-2.25-1.22-3.34-1.82-.18-.64-.53-1.22-1.07-1.72-1-.92-2.06-1.06-3.23-.6h0c-11.91-6.38-29.86-21.02-32.85-14.01-2.99,12.01,17.11,13.14,26.7,19.76-1.29,2.88-6.45,13.54-17.72,17.27-11.07,3.67-21.42-1.54-23.94-3-42.89-22.02,4.99-107.08-25.93-107.08-27.95,0,15.96,94.07-27.93,106.08-9.77,.6-16.77-14.43-26.74-11.41-11.26,3.41-4.6,27.72-18.14,34.43-72.81,36.03-70.77-23.43-102.54-15.41-69.01,17.41,80.6,6.4,62.65,77.46-34.91,58.04-109.72,3-111.71,42.03,2.99,50.04,33.91-31.02,106.85,7.36,10.66,5.6,13.03,17.26,13.03,17.26,1.96,4.81,1.86,8.25,.53,10.68-3.68,6.74-22.16,16.91-19.67,22.75,2.99,7.01,36.69-2.07,53.86,9.01,13.96,9.01-8.87,13.95,2.99,24.02,12.97,11.01-52.8,46.95-47.88,50.04,7.98,5,68.31-47.67,74.81-46.04,7.98,2,25.93,22.02,19.95,44.03-3.91,14.37-.59,35.66,4.6,35.64,4.97-.02,14.93-19.3,11.36-33.64-9.04-36.28,11.97-51.04,21.94-52.04,8.99-.9,1,22.02,11.97,27.02,10.97,3,10.09-28.79,16.96-19.01,6.67,9.51,11.52-.6,19.63-.1,3.69,.22,6.33,2.42,8.3,4.1,13.07,11.18,13.12,32.84,11.97,44.03-1.33,12.94-13.8,30.45-5.98,32.02,4.99,1,4.6-17.94,8.98-28.02,5.7-13.11,17.18-34.19,31.11-34.43,9.87-.17,24.74,3.98,36.71,18.41,4.99,6,4.64,28.11,11.97,25.02,7.6-3.2-5.77-16.13-7.98-27.02-2.47-12.15-11.3-36.62-3.78-57.37-1.21,3.33,14.75,6.33,17.74,.33,3.84-7.7,22.98-5.18,29.57-8.49,3.61,2.47,6.89,4.75,9.7,6.22,.9,26.05-5.37,52.3,1.37,51.84,7.23-.54,.91-24.87,5.03-50.33,.65-.17,1.23-.53,1.74-1.08,1.4-1.53,.97-3.24-.6-5.17,.13-.65,.27-1.31,.41-1.96,2.31,.42,4.1,1.18,5.19,2.35,5.52,5.97-3.53,14.62,2.45,18.62,5.98,4,9.97-10.01,18.39-3.15,19.16,15.6-5.89,74.85,11.53,76.21,18.43,1.44-22.94-51.04,17.78-75.69,11.45-6.94,46.11,34.18,61.01,20.65,7.76-7.05-57.85-7.01-35.85-40.97,7.07-10.92,14.17,.55,15.9-7.07,1.92-8.49-6.73-2.35-11.66-23.35-1.2-5.14,1.79-10.98,6.17-16.63,5.5,.33,8.77,.04,8.76-1.3,0-1.2-1.68-2.37-4.63-3.56,4.14-4.53,8.69-8.76,12.07-12.17,9.97-2.01-4.73,25.99,3.25,43,7.44,9.21,20.14,9.01,27.93,9.01s4.99,6,5.98,24.02c1.17,9.17-8.98,50.04,1,51.04,10.12,1.01-.38-26.81,2.99-48.04,3.89-24.52,27.99-82.84,36.4-82.77,.37,.01,.75,.21,1.15,.64,10.08,10.92,2.81,18.13,7.34,23.09,10.97,12.01,23.94-3,35.91,6,0,.15,13.84,21.71,13.84,55.45,0,6.75-.55,13.97-1.88,21.61-4.67,26.91,.45,34.89,4.81,34.63,2.83-.17,11.22-2.7,8.16-28.62-8.98-76.06,.54-81.26,23.48-82.92,57.31-4.14,72.44,78.95,89.23,60.91,13.96-15.01-73.81-36.03-43.24-98.06,10.51-21.33,47.91,4.93,50.22-9.03,1.99-12.01-39.54-7.24-42.46-46.56-2.3-31.03,32.94-59.04,51.44-68.53,0,0,21.33-12.94,20.1-17.79ZM300.49,222.97c-6.25,4.29-11.61-2.57-14.04-6.11-12.03-17.48,5.89-36.57,13.27-48.73,2.77,1.83,5.72,3.74,8.78,5.72,3.36,18.92,3.13,38.12-8,49.12Zm47.45-10.13c-9.33-.28-18.84-14.12-27.26-31.09,13.45,8.74,27.59,18.21,38.58,27.19-3.86,2.58-7.66,4.01-11.32,3.9Zm34.54,161.49c.74-6.29,2.55-11.16,5.97-13.54,10.52-7.36,21.68-3.69,31.54,1.98-14.47,5.1-29,4.6-37.51,11.56Z"/><path class="cls-1" d="M127.9,150.28c-.95,10.4-2.03,8-7,8s-12-2.37-12-9,8.03-15,13-15,7,5,6,16Z"/><path class="cls-1" d="M361.9,112.28c0,5.25-5.75,11-11,11s-11-1.75-11-7,7.75-12,13-12,9,2.75,9,8Z"/><path class="cls-1" d="M802.9,106.28c0,7.46-7.13,15-11,15s-8-10.54-8-18,6.13-12,10-12,9,7.54,9,15Z"/><path class="cls-1" d="M671.9,415.28c0,11.05-4.95,24-16,24s-26-1.95-26-13,7.95-27,19-27,23,4.95,23,16Z"/><path class="cls-1" d="M279.9,473.28c0,4.97-4.03,7-9,7s-9-2.03-9-7,1.03-8,6-8,12,3.03,12,8Z"/><path class="cls-1" d="M121.9,395.28c0,5.52-2.48,13-8,13s-12-2.48-12-8,7.48-12,13-12,7,1.48,7,7Z"/></svg>