<?xml version="1.0" encoding="UTF-8"?><svg id="arrows" xmlns="http://www.w3.org/2000/svg" viewBox="0 0 526.5 526.5"><path d="M348.78,498.48l10.27,28.2-77.06-48.99,32.58-73.2,10.26,28.2c69.09-25.15,118.42-91.41,118.42-169.19,0-55.35-24.99-104.87-64.3-137.89-27.53-23.13-62.09-38.16-100.01-41.44l1.31-14.94c41.08,3.55,78.52,19.83,108.35,44.88l6.42-7.65c-31.35-26.35-70.71-43.46-113.9-47.19l1.74-19.92c47.4,4.09,90.6,22.87,125.02,51.79l6.43-7.66c-35.95-30.2-81.06-49.83-130.58-54.1l1.31-14.94c52.67,4.54,100.67,25.42,138.91,57.54,54.6,45.86,89.3,114.64,89.3,191.52,0,108.03-68.52,200.05-164.47,234.98Z"/><path d="M137.9,412.89l-6.42,7.65c31.35,26.35,70.71,43.46,113.9,47.19l-1.74,19.92c-47.4-4.09-90.6-22.87-125.02-51.79l-6.43,7.66c35.95,30.2,81.06,49.83,130.58,54.1l-1.31,14.94c-52.67-4.54-100.67-25.42-138.91-57.54C47.95,409.16,13.25,340.38,13.25,263.5,13.25,155.47,81.77,63.45,177.72,28.52L167.45,.32l77.06,48.99-32.58,73.2-10.26-28.2c-69.09,25.15-118.42,91.41-118.42,169.19,0,55.35,24.99,104.87,64.3,137.89,27.53,23.13,62.09,38.16,100.01,41.44l-1.31,14.94c-41.08-3.55-78.52-19.83-108.35-44.88Z"/></svg>