<?xml version="1.0" encoding="UTF-8"?><svg id="elements" xmlns="http://www.w3.org/2000/svg" viewBox="0 0 1520 980"><defs><style>.cls-1{fill:#ff9650;}</style></defs><path class="cls-1" d="M1113,165.49c10.65,8.23-26,39.02-35,46.03-54.72,42.59-84,86.05-68.04,109.62,12.55,18.53,49.04-3.55,59.04,17.46,12.53,26.34-25.59,30.66-18.04,68.59,1.74,8.76,9.56,37.13,64.04,50.48,22.43,5.5,74.94-7,117-7,21,0,33,9.01,32.87,15.68-.13,6.33-9.87,16.34-25.87,15.34-35.02-2.19-97.55-12.29-121-7-31.84,7.18-53.99,22.93-55.04,28.57-3.89,20.94,3.04,34.47,130.04,67.49,24.29,6.32,196.26,12.02,242,25.02,81,23.01,85,32.02,85,42.03,0,8.85-37.86,30.25-127,11.01-57.8-12.47-189.74-65.71-218-71.04-95.47-18.01-118.71-14.49-128.04,10.55-13.96,37.48,18.04,41.48,6.04,58.49-8.01,11.36-39.8,3.8-57,29.02-13.96,20.46-22,35.02,52.2,117.23,45.09,49.96,53.32,73.05,61.8,84.89,13.45,18.77,10.15,27.74,4,33.02-.94,.8-1.88,1.27-2.87,1.39-10.89,1.32-23.13-7.39-31.13-21.4-9.15-16.02-14.73-48.53-35-79.05-22.68-34.16-81.82-87.06-109.04-74.5-24.73,11.41-12.52,55.27-30.96,64.49-24,12.01-38.96-33.57-71-21.01-22.2,8.7-40.43,60.53-44,114.07-1,15.01,1.38,10.78,5,47.03,3,30.02-11,38.02-21.13,38.02-13.88,0-25.19-7.46-20.87-28.02,4-19.01,18-10.01,20-51.03,2.5-51.29-11.06-107.68-47-113.07-9.73-1.46-35.16,29.18-104,98.06-11,11.01-39.42,31.98-62,20.01-17-9.01-3-46.03,6-56.03,34.33-38.17,22.09-58.05,14-68.04-20.82-25.71-69.9,19.8-84-12.01-9.49-21.4,59.51-34.23,8-122.08-17.7-30.18-85-26.02-94-45.03-14.48-30.58,38-25.02,30.56-59.64-3.74-17.4-159.99-12.63-186.56-7.41-69.78,13.72-90,60.04-188,27.02-28.87-9.73-65.96,8-66-9.33-.1-45.74,456.46-35.85,463.96-86.18,6.98-46.84-22.52-47.15-12.09-75.92,10.77-29.72,39.67-18.23,60.09-64.16,27.33-61.46-33.36-218.24-106.96-246.7-4.59-1.77-36.45-.26-55.54-23.47-13.38-16.28-30.41-41.64-21.46-52.57,9.82-11.99,45,3,59,16.01,11.92,11.07,18,25.02,38,43.03,26.34,23.72,184.16,163.55,219,151.09,42-15.01-3.55-65.56,40.46-78.51,51-15.01,46.04,50.71,81.54,53.49,51,4,33-31.02,60.46-26.48,24.13,3.99,12.8,19.66,20.7,32.69,0,0,5,8.59,16.84,11.8,10.36,2.81,43.18-8.37,70-50.03,38-59.04,31-80.05,37-96.06,9.9-26.41,43-33.02,53-26.02,15.46,10.83,14.84,40.07,6,52.03-18.2,24.64-55,50.03-75,80.05-30.55,45.85-35,70.04-8.04,87.6,26.57,17.31,74.62-10.94,113.04-52.58,12-13.01,31-54.03,53-37.02Z"/><path class="cls-1" d="M381,274c0,20.16-16.84,38-37,38s-35-12.84-35-33,17.84-40,38-40,34,14.84,34,35Z"/><path class="cls-1" d="M1334,315c0,24.3-39.7,46-64,46s-27,1.3-27-23,16.7-64,41-64,50,16.7,50,41Z"/><path class="cls-1" d="M401,752c0,19.61-15.39,61-35,61s-40-8.39-40-28,31.86-43.75,51-48c18-4,24-4.61,24,15Z"/></svg>